<?xml version="1.0" encoding="UTF-8" standalone="no"?>
<!-- Created with Inkscape (http://www.inkscape.org/) -->

<svg
   xmlns:dc="http://purl.org/dc/elements/1.1/"
   xmlns:cc="http://creativecommons.org/ns#"
   xmlns:rdf="http://www.w3.org/1999/02/22-rdf-syntax-ns#"
   xmlns:svg="http://www.w3.org/2000/svg"
   xmlns="http://www.w3.org/2000/svg"
   xmlns:sodipodi="http://sodipodi.sourceforge.net/DTD/sodipodi-0.dtd"
   xmlns:inkscape="http://www.inkscape.org/namespaces/inkscape"
   width="950"
   height="430"
   viewBox="0 0 251.35417 113.77084"
   version="1.1"
   id="svg8"
   inkscape:version="0.92.3 (d244b95, 2018-08-02)"
   sodipodi:docname="opioid logo.svg">
  <defs
     id="defs2" />
  <sodipodi:namedview
     id="base"
     pagecolor="#ffffff"
     bordercolor="#666666"
     borderopacity="1.0"
     inkscape:pageopacity="0.0"
     inkscape:pageshadow="2"
     inkscape:zoom="0.58885978"
     inkscape:cx="326.47691"
     inkscape:cy="372.68124"
     inkscape:document-units="px"
     inkscape:current-layer="layer1"
     showgrid="false"
     units="px"
     showborder="true"
     inkscape:snap-nodes="false"
     inkscape:snap-smooth-nodes="true"
     inkscape:snap-bbox="true"
     inkscape:snap-midpoints="true"
     inkscape:window-width="1549"
     inkscape:window-height="845"
     inkscape:window-x="51"
     inkscape:window-y="27"
     inkscape:window-maximized="1"
     width="450px" />
  <metadata
     id="metadata5">
    <rdf:RDF>
      <cc:Work
         rdf:about="">
        <dc:format>image/svg+xml</dc:format>
        <dc:type
           rdf:resource="http://purl.org/dc/dcmitype/StillImage" />
        <dc:title></dc:title>
      </cc:Work>
    </rdf:RDF>
  </metadata>
  <g
     inkscape:label="Layer 1"
     inkscape:groupmode="layer"
     id="layer1"
     transform="translate(0,-183.22916)">
    <g
       id="g1647"
       inkscape:export-xdpi="96"
       inkscape:export-ydpi="96"
       transform="translate(221.88159,80.023403)">
      <g
         id="g884">
        <path
           style="opacity:1;fill:#800080;fill-opacity:1;stroke:none;stroke-width:0.79374999;stroke-linecap:square;stroke-linejoin:miter;stroke-miterlimit:4;stroke-dasharray:none;stroke-opacity:1"
           d="m -122.43216,145.16556 c -2.72444,0 -4.91804,2.19307 -4.91804,4.91753 v 6.04718 c -1.08546,0.41267 -1.85467,1.45761 -1.85467,2.69131 v 7.40575 c 0,1.59667 1.28584,2.88199 2.88251,2.88199 h 8.66821 c 1.59667,0 2.88199,-1.28532 2.88199,-2.88199 v -7.40575 c 0,-1.2337 -0.7687,-2.27864 -1.85415,-2.69131 v -6.04718 c 0,-2.72446 -2.19359,-4.91753 -4.91805,-4.91753 z m 0.1261,2.8174 h 0.63561 c 1.9504,0 3.52072,1.57034 3.52072,3.52072 v 4.4359 h -7.67705 v -4.4359 c 0,-1.95038 1.57033,-3.52072 3.52072,-3.52072 z m 0.29507,11.27373 a 1.5073945,1.4619824 0 0 1 1.52549,1.43764 l -1.50741,0.0238 h 1.50792 a 1.5073945,1.4619824 0 0 1 -0.85783,1.31723 v 2.40089 c 0,0.32936 -0.27329,0.59428 -0.61288,0.59428 h -0.0739 c -0.33959,0 -0.61288,-0.26492 -0.61288,-0.59428 v -2.40089 a 1.5073945,1.4619824 0 0 1 -0.85731,-1.30534 1.5073945,1.4619824 0 0 1 1.4888,-1.4733 z"
           id="rect822"
           inkscape:connector-curvature="0" />
        <circle
           style="opacity:1;fill:none;fill-opacity:1;stroke:#800080;stroke-width:3.70416665;stroke-linecap:square;stroke-linejoin:miter;stroke-miterlimit:4;stroke-dasharray:none;stroke-opacity:1"
           id="path857"
           cx="-121.98853"
           cy="157.13744"
           r="16.838814" />
        <circle
           r="16.838814"
           cy="157.13744"
           cx="-121.98853"
           id="circle888"
           style="opacity:1;fill:none;fill-opacity:1;stroke:#800080;stroke-width:3.70416665;stroke-linecap:square;stroke-linejoin:miter;stroke-miterlimit:4;stroke-dasharray:none;stroke-opacity:1" />
      </g>
      <g
         transform="translate(-2.8594208,3.1771349)"
         id="g880">
        <path
           style="opacity:1;fill:#800080;fill-opacity:1;stroke:none;stroke-width:3.17499971;stroke-linecap:square;stroke-linejoin:miter;stroke-miterlimit:4;stroke-dasharray:none;stroke-opacity:1"
           d="m -42.452475,170.06357 c -1.926474,-1.92648 -5.028324,-1.92685 -6.954802,-3.7e-4 l -10.409678,10.40968 c -1.926478,1.92648 -1.926474,5.02869 0,6.95517 l 0.627771,0.62777 c 1.926478,1.92648 5.028689,1.92648 6.955167,0 l 10.409677,-10.40968 c 1.926478,-1.92648 1.926114,-5.02832 -3.65e-4,-6.9548 z m -1.903042,2.08136 0.449451,0.44945 c 1.379128,1.37913 1.379128,3.59992 0,4.97904 l -4.374606,4.37461 -5.428494,-5.42849 4.374606,-4.37461 c 1.379128,-1.37913 3.599916,-1.37913 4.979043,0 z m -3.951413,0.25934 c -0.09907,-0.0961 -0.385139,-0.15128 -0.385139,-0.15128 l -4.121483,4.12148 c 0,0 0.01267,0.3068 0.109621,0.40999 0.108878,0.11595 0.452374,0.15201 0.452374,0.15201 l 4.121483,-4.12149 z"
           id="rect888"
           inkscape:connector-curvature="0"
           sodipodi:nodetypes="ssssssssssssccssccccccc" />
        <path
           inkscape:connector-curvature="0"
           style="opacity:1;fill:none;fill-opacity:1;stroke:#800080;stroke-width:3.70416665;stroke-linecap:square;stroke-linejoin:miter;stroke-miterlimit:4;stroke-dasharray:none;stroke-opacity:1"
           d="m -33.981907,179.05966 a 16.838814,16.838814 0 0 1 -16.838814,16.83882 16.838814,16.838814 0 0 1 -16.838813,-16.83882 16.838814,16.838814 0 0 1 16.838813,-16.83881 16.838814,16.838814 0 0 1 16.838814,16.83881 z"
           id="circle861" />
      </g>
      <path
         sodipodi:nodetypes="cc"
         inkscape:connector-curvature="0"
         id="path886"
         d="m -105.14972,161.2677 35.570477,14.36576"
         style="fill:#800080;stroke:#800080;stroke-width:3.17499995;stroke-linecap:butt;stroke-linejoin:miter;stroke-miterlimit:4;stroke-dasharray:none;stroke-opacity:1" />
      <circle
         r="16.838814"
         cy="197.80476"
         cx="-169.64554"
         id="circle894"
         style="opacity:1;fill:none;fill-opacity:1;stroke:#800080;stroke-width:3.70416665;stroke-linecap:square;stroke-linejoin:miter;stroke-miterlimit:4;stroke-dasharray:none;stroke-opacity:1" />
      <circle
         style="opacity:1;fill:none;fill-opacity:1;stroke:#800080;stroke-width:3.70416665;stroke-linecap:square;stroke-linejoin:miter;stroke-miterlimit:4;stroke-dasharray:none;stroke-opacity:1"
         id="circle903"
         cx="-202.37003"
         cy="123.14209"
         r="16.838814" />
      <path
         style="fill:#800080;stroke:#800080;stroke-width:3.17499995;stroke-linecap:butt;stroke-linejoin:miter;stroke-miterlimit:4;stroke-dasharray:none;stroke-opacity:1"
         d="m -197.28662,139.02776 21.27337,43.27768"
         id="path905"
         inkscape:connector-curvature="0"
         sodipodi:nodetypes="cc" />
      <path
         sodipodi:nodetypes="cc"
         inkscape:connector-curvature="0"
         id="path907"
         d="m -134.06164,169.21054 -22.57109,17.54289"
         style="fill:#800080;stroke:#800080;stroke-width:3.17499995;stroke-linecap:butt;stroke-linejoin:miter;stroke-miterlimit:4;stroke-dasharray:none;stroke-opacity:1" />
      <path
         style="fill:#800080;stroke:#800080;stroke-width:3.17499995;stroke-linecap:butt;stroke-linejoin:miter;stroke-miterlimit:4;stroke-dasharray:none;stroke-opacity:1"
         d="M -6.3408346,177.47109 -36.854761,181.3523"
         id="path909"
         inkscape:connector-curvature="0"
         sodipodi:nodetypes="cc" />
      <circle
         style="opacity:1;fill:none;fill-opacity:1;stroke:#800080;stroke-width:3.70416689;stroke-linecap:square;stroke-linejoin:miter;stroke-miterlimit:4;stroke-dasharray:none;stroke-opacity:1"
         id="circle911"
         cx="-169.64554"
         cy="197.80476"
         r="10.166831" />
      <circle
         r="4.7657027"
         cy="123.14209"
         cx="-202.37003"
         id="circle913"
         style="opacity:1;fill:#800080;fill-opacity:1;stroke:#800080;stroke-width:3.70416689;stroke-linecap:square;stroke-linejoin:miter;stroke-miterlimit:4;stroke-dasharray:none;stroke-opacity:1" />
      <g
         id="g1617">
        <circle
           r="16.838814"
           cy="174.61168"
           cx="10.180267"
           id="circle901"
           style="opacity:1;fill:none;fill-opacity:1;stroke:#800080;stroke-width:3.70416665;stroke-linecap:square;stroke-linejoin:miter;stroke-miterlimit:4;stroke-dasharray:none;stroke-opacity:1" />
        <circle
           style="opacity:1;fill:none;fill-opacity:1;stroke:#800080;stroke-width:3.70416665;stroke-linecap:square;stroke-linejoin:miter;stroke-miterlimit:4;stroke-dasharray:none;stroke-opacity:1"
           id="circle915"
           cx="10.180267"
           cy="174.61168"
           r="11.119971" />
        <circle
           r="5.0834155"
           cy="174.61168"
           cx="10.180267"
           id="circle917"
           style="opacity:1;fill:none;fill-opacity:1;stroke:#800080;stroke-width:3.70416641;stroke-linecap:square;stroke-linejoin:miter;stroke-miterlimit:4;stroke-dasharray:none;stroke-opacity:1" />
      </g>
      <g
         transform="translate(115.92318,17.073957)"
         id="g1610">
        <g
           id="g1601"
           transform="translate(-46.504066,4.4931497)">
          <path
             sodipodi:nodetypes="cc"
             inkscape:connector-curvature="0"
             id="path1556"
             d="m -116.45936,106.03443 h 18.089388"
             style="fill:#800080;stroke:#800080;stroke-width:3.17499995;stroke-linecap:butt;stroke-linejoin:miter;stroke-miterlimit:4;stroke-dasharray:none;stroke-opacity:1" />
          <path
             style="fill:#800080;stroke:#800080;stroke-width:3.17499995;stroke-linecap:butt;stroke-linejoin:miter;stroke-miterlimit:4;stroke-dasharray:none;stroke-opacity:1"
             d="M -114.87186,107.62193 V 94.409776"
             id="path1558"
             inkscape:connector-curvature="0"
             sodipodi:nodetypes="cc" />
          <path
             sodipodi:nodetypes="cc"
             inkscape:connector-curvature="0"
             id="path1560"
             d="m -110.42956,107.46307 v -7.01675"
             style="fill:#800080;stroke:#800080;stroke-width:3.17499995;stroke-linecap:butt;stroke-linejoin:miter;stroke-miterlimit:4;stroke-dasharray:none;stroke-opacity:1" />
          <path
             style="fill:#800080;stroke:#800080;stroke-width:3.17499995;stroke-linecap:butt;stroke-linejoin:miter;stroke-miterlimit:4;stroke-dasharray:none;stroke-opacity:1"
             d="M -105.98727,107.62193 V 96.316053"
             id="path1562"
             inkscape:connector-curvature="0"
             sodipodi:nodetypes="cc" />
          <path
             sodipodi:nodetypes="cc"
             inkscape:connector-curvature="0"
             id="path1564"
             d="M -101.54498,107.46307 V 98.857753"
             style="fill:#800080;stroke:#800080;stroke-width:3.17499995;stroke-linecap:butt;stroke-linejoin:miter;stroke-miterlimit:4;stroke-dasharray:none;stroke-opacity:1" />
        </g>
        <circle
           style="opacity:1;fill:none;fill-opacity:1;stroke:#800080;stroke-width:3.70416665;stroke-linecap:square;stroke-linejoin:miter;stroke-miterlimit:4;stroke-dasharray:none;stroke-opacity:1"
           id="circle1566"
           cx="-153.91873"
           cy="105.509"
           r="16.838814" />
      </g>
      <path
         sodipodi:nodetypes="cc"
         inkscape:connector-curvature="0"
         id="path1612"
         d="M -0.05042928,160.39713 -24.723265,133.27563"
         style="fill:#800080;stroke:#800080;stroke-width:3.17499995;stroke-linecap:butt;stroke-linejoin:miter;stroke-miterlimit:4;stroke-dasharray:none;stroke-opacity:1" />
    </g>
  </g>
</svg>
