<?xml version="1.0" encoding="UTF-8" standalone="no"?>
<!-- Created with Inkscape (http://www.inkscape.org/) -->

<svg
   xmlns:dc="http://purl.org/dc/elements/1.1/"
   xmlns:cc="http://creativecommons.org/ns#"
   xmlns:rdf="http://www.w3.org/1999/02/22-rdf-syntax-ns#"
   xmlns:svg="http://www.w3.org/2000/svg"
   xmlns="http://www.w3.org/2000/svg"
   xmlns:sodipodi="http://sodipodi.sourceforge.net/DTD/sodipodi-0.dtd"
   xmlns:inkscape="http://www.inkscape.org/namespaces/inkscape"
   width="1860"
   height="240"
   viewBox="0 0 492.12499 63.500002"
   version="1.1"
   id="svg2437"
   inkscape:version="0.92.3 (d244b95, 2018-08-02)"
   sodipodi:docname="opiod_substance_abuse.svg">
  <defs
     id="defs2431" />
  <sodipodi:namedview
     id="base"
     pagecolor="#ffffff"
     bordercolor="#666666"
     borderopacity="1.0"
     inkscape:pageopacity="0.0"
     inkscape:pageshadow="2"
     inkscape:zoom="1.4"
     inkscape:cx="983.67454"
     inkscape:cy="-14.394017"
     inkscape:document-units="mm"
     inkscape:current-layer="layer1"
     showgrid="false"
     units="px"
     inkscape:window-width="1549"
     inkscape:window-height="845"
     inkscape:window-x="51"
     inkscape:window-y="27"
     inkscape:window-maximized="1" />
  <metadata
     id="metadata2434">
    <rdf:RDF>
      <cc:Work
         rdf:about="">
        <dc:format>image/svg+xml</dc:format>
        <dc:type
           rdf:resource="http://purl.org/dc/dcmitype/StillImage" />
        <dc:title></dc:title>
      </cc:Work>
    </rdf:RDF>
  </metadata>
  <g
     inkscape:label="Layer 1"
     inkscape:groupmode="layer"
     id="layer1"
     transform="translate(0,-233.49998)">
    <g
       transform="translate(208.37525,-516.66482)"
       id="g2429">
      <path
         style="fill:#800080;stroke:#800080;stroke-width:3.17499995;stroke-linecap:butt;stroke-linejoin:miter;stroke-miterlimit:4;stroke-dasharray:none;stroke-opacity:1"
         d="m -171.16168,784.58536 56.63924,5.63332"
         id="path1672"
         inkscape:connector-curvature="0"
         sodipodi:nodetypes="cc" />
      <path
         sodipodi:nodetypes="cc"
         inkscape:connector-curvature="0"
         id="path1674"
         d="M -81.748059,789.07852 -24.21019,775.39129"
         style="fill:#800080;stroke:#800080;stroke-width:3.17499995;stroke-linecap:butt;stroke-linejoin:miter;stroke-miterlimit:4;stroke-dasharray:none;stroke-opacity:1" />
      <g
         transform="translate(418.08661,682.36174)"
         id="g1690">
        <g
           id="g1686"
           transform="translate(-46.504066,4.4931497)">
          <path
             sodipodi:nodetypes="cc"
             inkscape:connector-curvature="0"
             id="path1676"
             d="m -116.45936,106.03443 h 18.089388"
             style="fill:#800080;stroke:#800080;stroke-width:3.17499995;stroke-linecap:butt;stroke-linejoin:miter;stroke-miterlimit:4;stroke-dasharray:none;stroke-opacity:1" />
          <path
             style="fill:#800080;stroke:#800080;stroke-width:3.17499995;stroke-linecap:butt;stroke-linejoin:miter;stroke-miterlimit:4;stroke-dasharray:none;stroke-opacity:1"
             d="M -114.87186,107.62193 V 94.409776"
             id="path1678"
             inkscape:connector-curvature="0"
             sodipodi:nodetypes="cc" />
          <path
             sodipodi:nodetypes="cc"
             inkscape:connector-curvature="0"
             id="path1680"
             d="m -110.42956,107.46307 v -7.01675"
             style="fill:#800080;stroke:#800080;stroke-width:3.17499995;stroke-linecap:butt;stroke-linejoin:miter;stroke-miterlimit:4;stroke-dasharray:none;stroke-opacity:1" />
          <path
             style="fill:#800080;stroke:#800080;stroke-width:3.17499995;stroke-linecap:butt;stroke-linejoin:miter;stroke-miterlimit:4;stroke-dasharray:none;stroke-opacity:1"
             d="M -105.98727,107.62193 V 96.316053"
             id="path1682"
             inkscape:connector-curvature="0"
             sodipodi:nodetypes="cc" />
          <path
             sodipodi:nodetypes="cc"
             inkscape:connector-curvature="0"
             id="path1684"
             d="M -101.54498,107.46307 V 98.857753"
             style="fill:#800080;stroke:#800080;stroke-width:3.17499995;stroke-linecap:butt;stroke-linejoin:miter;stroke-miterlimit:4;stroke-dasharray:none;stroke-opacity:1" />
        </g>
        <circle
           style="opacity:1;fill:none;fill-opacity:1;stroke:#800080;stroke-width:3.70416665;stroke-linecap:square;stroke-linejoin:miter;stroke-miterlimit:4;stroke-dasharray:none;stroke-opacity:1"
           id="circle1688"
           cx="-153.91873"
           cy="105.509"
           r="16.838814" />
      </g>
      <g
         transform="translate(38.881743,261.83207)"
         id="g1702">
        <circle
           style="opacity:1;fill:none;fill-opacity:1;stroke:#800080;stroke-width:3.70416665;stroke-linecap:square;stroke-linejoin:miter;stroke-miterlimit:4;stroke-dasharray:none;stroke-opacity:1"
           id="circle1698"
           cx="134.84155"
           cy="511.66525"
           r="16.838814" />
        <circle
           r="10.166831"
           cy="511.66525"
           cx="134.84155"
           id="circle1700"
           style="opacity:1;fill:none;fill-opacity:1;stroke:#800080;stroke-width:3.70416689;stroke-linecap:square;stroke-linejoin:miter;stroke-miterlimit:4;stroke-dasharray:none;stroke-opacity:1" />
      </g>
      <g
         id="g1708"
         transform="translate(-2.9590915,268.18633)">
        <circle
           r="16.838814"
           cy="515.16016"
           cx="-185.0959"
           id="circle1704"
           style="opacity:1;fill:none;fill-opacity:1;stroke:#800080;stroke-width:3.70416665;stroke-linecap:square;stroke-linejoin:miter;stroke-miterlimit:4;stroke-dasharray:none;stroke-opacity:1" />
        <circle
           style="opacity:1;fill:#800080;fill-opacity:1;stroke:#800080;stroke-width:3.70416689;stroke-linecap:square;stroke-linejoin:miter;stroke-miterlimit:4;stroke-dasharray:none;stroke-opacity:1"
           id="circle1706"
           cx="-185.0959"
           cy="515.16016"
           r="4.7657027" />
      </g>
      <path
         style="fill:#800080;stroke:#800080;stroke-width:3.17499995;stroke-linecap:butt;stroke-linejoin:miter;stroke-miterlimit:4;stroke-dasharray:none;stroke-opacity:1"
         d="m 9.9121345,773.3525 56.1194475,9.02148"
         id="path1710"
         inkscape:connector-curvature="0"
         sodipodi:nodetypes="cc" />
      <path
         sodipodi:nodetypes="cc"
         inkscape:connector-curvature="0"
         id="path1712"
         d="M 99.977153,783.17162 155.965,776.73922"
         style="fill:#800080;stroke:#800080;stroke-width:3.17499995;stroke-linecap:butt;stroke-linejoin:miter;stroke-miterlimit:4;stroke-dasharray:none;stroke-opacity:1" />
      <path
         style="fill:#800080;stroke:#800080;stroke-width:3.17499995;stroke-linecap:butt;stroke-linejoin:miter;stroke-miterlimit:4;stroke-dasharray:none;stroke-opacity:1"
         d="m 191.43526,774.25114 53.49404,10.57577"
         id="path1714"
         inkscape:connector-curvature="0"
         sodipodi:nodetypes="cc" />
      <g
         id="g1830"
         transform="translate(-46.789688,614.45361)">
        <path
           sodipodi:nodetypes="ssssssssssssccssccccccc"
           inkscape:connector-curvature="0"
           id="path1826"
           d="m -42.452475,170.06357 c -1.926474,-1.92648 -5.028324,-1.92685 -6.954802,-3.7e-4 l -10.409678,10.40968 c -1.926478,1.92648 -1.926474,5.02869 0,6.95517 l 0.627771,0.62777 c 1.926478,1.92648 5.028689,1.92648 6.955167,0 l 10.409677,-10.40968 c 1.926478,-1.92648 1.926114,-5.02832 -3.65e-4,-6.9548 z m -1.903042,2.08136 0.449451,0.44945 c 1.379128,1.37913 1.379128,3.59992 0,4.97904 l -4.374606,4.37461 -5.428494,-5.42849 4.374606,-4.37461 c 1.379128,-1.37913 3.599916,-1.37913 4.979043,0 z m -3.951413,0.25934 c -0.09907,-0.0961 -0.385139,-0.15128 -0.385139,-0.15128 l -4.121483,4.12148 c 0,0 0.01267,0.3068 0.109621,0.40999 0.108878,0.11595 0.452374,0.15201 0.452374,0.15201 l 4.121483,-4.12149 z"
           style="opacity:1;fill:#800080;fill-opacity:1;stroke:none;stroke-width:3.17499971;stroke-linecap:square;stroke-linejoin:miter;stroke-miterlimit:4;stroke-dasharray:none;stroke-opacity:1" />
        <path
           id="path1828"
           d="m -33.981907,179.05966 a 16.838814,16.838814 0 0 1 -16.838814,16.83882 16.838814,16.838814 0 0 1 -16.838813,-16.83882 16.838814,16.838814 0 0 1 16.838813,-16.83881 16.838814,16.838814 0 0 1 16.838814,16.83881 z"
           style="opacity:1;fill:none;fill-opacity:1;stroke:#800080;stroke-width:3.70416665;stroke-linecap:square;stroke-linejoin:miter;stroke-miterlimit:4;stroke-dasharray:none;stroke-opacity:1"
           inkscape:connector-curvature="0" />
      </g>
      <g
         id="g1838"
         transform="translate(-121.76345,-242.82539)">
        <circle
           r="16.838814"
           cy="1012.8279"
           cx="114.5976"
           id="circle1832"
           style="opacity:1;fill:none;fill-opacity:1;stroke:#0000ff;stroke-width:3.70416665;stroke-linecap:square;stroke-linejoin:miter;stroke-miterlimit:4;stroke-dasharray:none;stroke-opacity:1" />
        <path
           sodipodi:nodetypes="ssssssssssssccssccccccc"
           inkscape:connector-curvature="0"
           id="path1834"
           d="m 105.60157,1004.4596 c -1.92648,1.9265 -1.92685,5.0283 -3.7e-4,6.9548 l 10.40968,10.4097 c 1.92648,1.9265 5.02869,1.9265 6.95517,0 l 0.62777,-0.6278 c 1.92648,-1.9264 1.92648,-5.0287 0,-6.9551 l -10.40968,-10.4097 c -1.92648,-1.9265 -5.02832,-1.9261 -6.9548,4e-4 z m 2.08136,1.9031 0.44945,-0.4495 c 1.37913,-1.3791 3.59992,-1.3791 4.97904,0 l 4.37461,4.3746 -5.42849,5.4285 -4.37461,-4.3746 c -1.37913,-1.3791 -1.37913,-3.5999 0,-4.979 z m 0.25934,3.9514 c -0.0961,0.099 -0.15128,0.3851 -0.15128,0.3851 l 4.12148,4.1215 c 0,0 0.3068,-0.013 0.40999,-0.1096 0.11595,-0.1089 0.15201,-0.4524 0.15201,-0.4524 l -4.12149,-4.1215 z"
           style="opacity:1;fill:#0000ff;fill-opacity:1;stroke:none;stroke-width:3.17499971;stroke-linecap:square;stroke-linejoin:miter;stroke-miterlimit:4;stroke-dasharray:none;stroke-opacity:1" />
        <path
           inkscape:connector-curvature="0"
           id="path1836"
           d="m 102.68335,1024.7422 23.8285,-23.8286"
           style="fill:none;stroke:#0000ff;stroke-width:3.17500019;stroke-linecap:butt;stroke-linejoin:miter;stroke-miterlimit:4;stroke-dasharray:none;stroke-opacity:1" />
      </g>
      <g
         transform="translate(205.26725,629.06843)"
         id="g1846">
        <path
           inkscape:connector-curvature="0"
           id="path1840"
           d="m -122.43216,145.16556 c -2.72444,0 -4.91804,2.19307 -4.91804,4.91753 v 6.04718 c -1.08546,0.41267 -1.85467,1.45761 -1.85467,2.69131 v 7.40575 c 0,1.59667 1.28584,2.88199 2.88251,2.88199 h 8.66821 c 1.59667,0 2.88199,-1.28532 2.88199,-2.88199 v -7.40575 c 0,-1.2337 -0.7687,-2.27864 -1.85415,-2.69131 v -6.04718 c 0,-2.72446 -2.19359,-4.91753 -4.91805,-4.91753 z m 0.1261,2.8174 h 0.63561 c 1.9504,0 3.52072,1.57034 3.52072,3.52072 v 4.4359 h -7.67705 v -4.4359 c 0,-1.95038 1.57033,-3.52072 3.52072,-3.52072 z m 0.29507,11.27373 a 1.5073945,1.4619824 0 0 1 1.52549,1.43764 l -1.50741,0.0238 h 1.50792 a 1.5073945,1.4619824 0 0 1 -0.85783,1.31723 v 2.40089 c 0,0.32936 -0.27329,0.59428 -0.61288,0.59428 h -0.0739 c -0.33959,0 -0.61288,-0.26492 -0.61288,-0.59428 v -2.40089 a 1.5073945,1.4619824 0 0 1 -0.85731,-1.30534 1.5073945,1.4619824 0 0 1 1.4888,-1.4733 z"
           style="opacity:1;fill:#800080;fill-opacity:1;stroke:none;stroke-width:0.79374999;stroke-linecap:square;stroke-linejoin:miter;stroke-miterlimit:4;stroke-dasharray:none;stroke-opacity:1" />
        <circle
           r="16.838814"
           cy="157.13744"
           cx="-121.98853"
           id="circle1842"
           style="opacity:1;fill:none;fill-opacity:1;stroke:#800080;stroke-width:3.70416665;stroke-linecap:square;stroke-linejoin:miter;stroke-miterlimit:4;stroke-dasharray:none;stroke-opacity:1" />
        <circle
           style="opacity:1;fill:none;fill-opacity:1;stroke:#800080;stroke-width:3.70416665;stroke-linecap:square;stroke-linejoin:miter;stroke-miterlimit:4;stroke-dasharray:none;stroke-opacity:1"
           id="circle1844"
           cx="-121.98853"
           cy="157.13744"
           r="16.838814" />
      </g>
    </g>
  </g>
</svg>
