<?xml version="1.0" encoding="UTF-8" standalone="no"?>
<!-- Created with Inkscape (http://www.inkscape.org/) -->

<svg
   xmlns:dc="http://purl.org/dc/elements/1.1/"
   xmlns:cc="http://creativecommons.org/ns#"
   xmlns:rdf="http://www.w3.org/1999/02/22-rdf-syntax-ns#"
   xmlns:svg="http://www.w3.org/2000/svg"
   xmlns="http://www.w3.org/2000/svg"
   xmlns:sodipodi="http://sodipodi.sourceforge.net/DTD/sodipodi-0.dtd"
   xmlns:inkscape="http://www.inkscape.org/namespaces/inkscape"
   width="1860"
   height="240"
   viewBox="0 0 492.12499 63.500002"
   version="1.1"
   id="svg2437"
   inkscape:version="0.92.3 (d244b95, 2018-08-02)"
   sodipodi:docname="opiod_social_services.svg">
  <defs
     id="defs2431" />
  <sodipodi:namedview
     id="base"
     pagecolor="#ffffff"
     bordercolor="#666666"
     borderopacity="1.0"
     inkscape:pageopacity="0.0"
     inkscape:pageshadow="2"
     inkscape:zoom="1.4"
     inkscape:cx="983.67454"
     inkscape:cy="-14.394017"
     inkscape:document-units="mm"
     inkscape:current-layer="layer1"
     showgrid="false"
     units="px"
     inkscape:window-width="1549"
     inkscape:window-height="845"
     inkscape:window-x="51"
     inkscape:window-y="27"
     inkscape:window-maximized="1" />
  <metadata
     id="metadata2434">
    <rdf:RDF>
      <cc:Work
         rdf:about="">
        <dc:format>image/svg+xml</dc:format>
        <dc:type
           rdf:resource="http://purl.org/dc/dcmitype/StillImage" />
        <dc:title></dc:title>
      </cc:Work>
    </rdf:RDF>
  </metadata>
  <g
     inkscape:label="Layer 1"
     inkscape:groupmode="layer"
     id="layer1"
     transform="translate(0,-233.49998)">
    <g
       id="g2279"
       transform="translate(207.47662,-736.71998)">
      <path
         sodipodi:nodetypes="cc"
         inkscape:connector-curvature="0"
         id="path2076"
         d="m -170.26305,1004.6405 56.63924,5.6333"
         style="fill:#800080;stroke:#800080;stroke-width:3.17499995;stroke-linecap:butt;stroke-linejoin:miter;stroke-miterlimit:4;stroke-dasharray:none;stroke-opacity:1" />
      <path
         style="fill:#800080;stroke:#800080;stroke-width:3.17499995;stroke-linecap:butt;stroke-linejoin:miter;stroke-miterlimit:4;stroke-dasharray:none;stroke-opacity:1"
         d="m -80.849427,1009.1337 57.537869,-13.68724"
         id="path2078"
         inkscape:connector-curvature="0"
         sodipodi:nodetypes="cc" />
      <g
         id="g2094"
         transform="translate(418.98524,902.4169)">
        <g
           transform="translate(-46.504066,4.4931497)"
           id="g2090">
          <path
             style="fill:#800080;stroke:#800080;stroke-width:3.17499995;stroke-linecap:butt;stroke-linejoin:miter;stroke-miterlimit:4;stroke-dasharray:none;stroke-opacity:1"
             d="m -116.45936,106.03443 h 18.089388"
             id="path2080"
             inkscape:connector-curvature="0"
             sodipodi:nodetypes="cc" />
          <path
             sodipodi:nodetypes="cc"
             inkscape:connector-curvature="0"
             id="path2082"
             d="M -114.87186,107.62193 V 94.409776"
             style="fill:#800080;stroke:#800080;stroke-width:3.17499995;stroke-linecap:butt;stroke-linejoin:miter;stroke-miterlimit:4;stroke-dasharray:none;stroke-opacity:1" />
          <path
             style="fill:#800080;stroke:#800080;stroke-width:3.17499995;stroke-linecap:butt;stroke-linejoin:miter;stroke-miterlimit:4;stroke-dasharray:none;stroke-opacity:1"
             d="m -110.42956,107.46307 v -7.01675"
             id="path2084"
             inkscape:connector-curvature="0"
             sodipodi:nodetypes="cc" />
          <path
             sodipodi:nodetypes="cc"
             inkscape:connector-curvature="0"
             id="path2086"
             d="M -105.98727,107.62193 V 96.316053"
             style="fill:#800080;stroke:#800080;stroke-width:3.17499995;stroke-linecap:butt;stroke-linejoin:miter;stroke-miterlimit:4;stroke-dasharray:none;stroke-opacity:1" />
          <path
             style="fill:#800080;stroke:#800080;stroke-width:3.17499995;stroke-linecap:butt;stroke-linejoin:miter;stroke-miterlimit:4;stroke-dasharray:none;stroke-opacity:1"
             d="M -101.54498,107.46307 V 98.857753"
             id="path2088"
             inkscape:connector-curvature="0"
             sodipodi:nodetypes="cc" />
        </g>
        <circle
           r="16.838814"
           cy="105.509"
           cx="-153.91873"
           id="circle2092"
           style="opacity:1;fill:none;fill-opacity:1;stroke:#800080;stroke-width:3.70416665;stroke-linecap:square;stroke-linejoin:miter;stroke-miterlimit:4;stroke-dasharray:none;stroke-opacity:1" />
      </g>
      <g
         id="g2106"
         transform="translate(39.780375,481.88724)">
        <circle
           r="16.838814"
           cy="511.66525"
           cx="134.84155"
           id="circle2102"
           style="opacity:1;fill:none;fill-opacity:1;stroke:#800080;stroke-width:3.70416665;stroke-linecap:square;stroke-linejoin:miter;stroke-miterlimit:4;stroke-dasharray:none;stroke-opacity:1" />
        <circle
           style="opacity:1;fill:none;fill-opacity:1;stroke:#800080;stroke-width:3.70416689;stroke-linecap:square;stroke-linejoin:miter;stroke-miterlimit:4;stroke-dasharray:none;stroke-opacity:1"
           id="circle2104"
           cx="134.84155"
           cy="511.66525"
           r="10.166831" />
      </g>
      <g
         transform="translate(-2.0604592,488.24151)"
         id="g2112">
        <circle
           style="opacity:1;fill:none;fill-opacity:1;stroke:#800080;stroke-width:3.70416665;stroke-linecap:square;stroke-linejoin:miter;stroke-miterlimit:4;stroke-dasharray:none;stroke-opacity:1"
           id="circle2108"
           cx="-185.0959"
           cy="515.16016"
           r="16.838814" />
        <circle
           r="4.7657027"
           cy="515.16016"
           cx="-185.0959"
           id="circle2110"
           style="opacity:1;fill:#800080;fill-opacity:1;stroke:#800080;stroke-width:3.70416689;stroke-linecap:square;stroke-linejoin:miter;stroke-miterlimit:4;stroke-dasharray:none;stroke-opacity:1" />
      </g>
      <path
         sodipodi:nodetypes="cc"
         inkscape:connector-curvature="0"
         id="path2114"
         d="m 9.9121383,993.85698 56.6392397,8.32922"
         style="fill:#800080;stroke:#800080;stroke-width:3.17499995;stroke-linecap:butt;stroke-linejoin:miter;stroke-miterlimit:4;stroke-dasharray:none;stroke-opacity:1" />
      <path
         style="fill:#800080;stroke:#800080;stroke-width:3.17499995;stroke-linecap:butt;stroke-linejoin:miter;stroke-miterlimit:4;stroke-dasharray:none;stroke-opacity:1"
         d="m 102.47096,1004.6405 54.39267,-7.8461"
         id="path2116"
         inkscape:connector-curvature="0"
         sodipodi:nodetypes="cc" />
      <path
         sodipodi:nodetypes="cc"
         inkscape:connector-curvature="0"
         id="path2118"
         d="m 192.33389,994.3063 53.49404,10.5758"
         style="fill:#800080;stroke:#800080;stroke-width:3.17499995;stroke-linecap:butt;stroke-linejoin:miter;stroke-miterlimit:4;stroke-dasharray:none;stroke-opacity:1" />
      <g
         transform="translate(-106.89205,838.95677)"
         id="g2126"
         style="stroke:#800080">
        <circle
           style="opacity:1;fill:none;fill-opacity:1;stroke:#800080;stroke-width:3.70416665;stroke-linecap:square;stroke-linejoin:miter;stroke-miterlimit:4;stroke-dasharray:none;stroke-opacity:1"
           id="circle2120"
           cx="10.180267"
           cy="174.61168"
           r="16.838814" />
        <circle
           r="11.119971"
           cy="174.61168"
           cx="10.180267"
           id="circle2122"
           style="opacity:1;fill:none;fill-opacity:1;stroke:#800080;stroke-width:3.70416665;stroke-linecap:square;stroke-linejoin:miter;stroke-miterlimit:4;stroke-dasharray:none;stroke-opacity:1" />
        <circle
           style="opacity:1;fill:none;fill-opacity:1;stroke:#800080;stroke-width:3.70416641;stroke-linecap:square;stroke-linejoin:miter;stroke-miterlimit:4;stroke-dasharray:none;stroke-opacity:1"
           id="circle2124"
           cx="10.180267"
           cy="174.61168"
           r="5.0834155" />
      </g>
      <g
         transform="translate(-102.44375,73.687594)"
         id="g2222">
        <g
           id="g2074"
           transform="matrix(0.26458334,0,0,0.26458334,173.55028,919.34426)"
           style="fill:#008000">
          <g
             id="g2038"
             style="fill:#008000">
            <g
               id="g2036"
               style="fill:#008000">
              <path
                 id="path2034"
                 d="M 88.496,55.794 V 35.826 c 0,-2.833 2.319,-5.139 5.169,-5.139 2.839,0 5.138,2.306 5.138,5.139 V 63.17 c 0,3.78 -1.36,7.434 -3.802,10.286 L 77.949,91.564 c -1.691,1.593 -2.106,3.004 -2.106,5.14 V 100 h -18.56 l -0.021,-7.844 c 0,-2.986 -0.244,-6.979 3.495,-10.896 L 82.392,59.535 c 0.771,-0.743 1.782,-1.149 2.853,-1.149 2.264,0 4.105,1.837 4.105,4.097 0,0.977 -0.346,1.924 -0.977,2.67 L 77.938,76.332 c -0.677,0.793 -1.82,2.287 -2.389,4.118 -0.308,0.951 -0.395,1.879 -0.412,2.941 h 3.359 c 0.014,-0.758 0.069,-1.366 0.251,-1.931 0.328,-1.057 0.983,-2.006 1.475,-2.616 L 90.815,67.218 c 1.332,-1.343 2.062,-3.082 2.062,-4.909 -10e-4,-2.745 -1.651,-5.269 -4.381,-6.515 z"
                 inkscape:connector-curvature="0"
                 style="fill:#008000" />
            </g>
          </g>
          <g
             id="g2044"
             style="fill:#008000">
            <g
               id="g2042"
               style="fill:#008000">
              <path
                 id="path2040"
                 d="M 10.306,55.794 V 35.826 c 0,-2.833 -2.319,-5.139 -5.169,-5.139 C 2.298,30.687 0,32.993 0,35.826 V 63.17 c 0,3.78 1.36,7.434 3.802,10.286 l 17.052,18.107 c 1.691,1.593 2.106,3.004 2.106,5.14 V 100 h 18.559 l 0.021,-7.844 c 0,-2.986 0.244,-6.979 -3.495,-10.896 L 16.41,59.537 c -0.771,-0.743 -1.782,-1.149 -2.853,-1.149 -2.263,0 -4.105,1.837 -4.105,4.097 0,0.977 0.345,1.924 0.977,2.67 l 10.436,11.178 c 0.677,0.793 1.821,2.287 2.389,4.118 0.307,0.951 0.394,1.879 0.412,2.941 h -3.359 c -0.014,-0.758 -0.07,-1.366 -0.251,-1.931 -0.328,-1.057 -0.983,-2.006 -1.475,-2.616 L 7.987,67.218 C 6.654,65.875 5.926,64.136 5.926,62.309 c 0,-2.745 1.649,-5.269 4.38,-6.515 z"
                 inkscape:connector-curvature="0"
                 style="fill:#008000" />
            </g>
          </g>
          <path
             id="path2046"
             d="m 51.354,8.845 c 2.435,0 4.405,-1.974 4.405,-4.408 0,-2.428 -1.971,-4.405 -4.405,-4.405 -2.431,0 -4.401,1.978 -4.401,4.405 0,2.434 1.97,4.408 4.401,4.408 z"
             inkscape:connector-curvature="0"
             style="fill:#008000" />
          <path
             id="path2048"
             d="m 27.452,8.869 c -2.469,0 -4.468,-1.981 -4.468,-4.436 0,-2.449 1.999,-4.433 4.468,-4.433 2.469,0 4.475,1.984 4.475,4.433 0,2.455 -2.006,4.436 -4.475,4.436 z"
             inkscape:connector-curvature="0"
             style="fill:#008000" />
          <g
             id="g2054"
             style="fill:#008000">
            <circle
               id="circle2050"
               r="3.0899999"
               cx="73.244003"
               cy="22.785999"
               style="fill:#008000" />
            <path
               id="path2052"
               d="m 77.718,27.4 h -8.336 c -0.038,0 -2.79,-0.251 -2.79,-0.251 L 63.101,14.98 c -1.406,-4.9 -5.515,-4.75 -5.515,-4.75 h -11.3 c 0,0 -4.105,-0.15 -5.51,4.75 l -1.723,5.992 -1.719,-5.992 c -1.413,-4.9 -5.511,-4.75 -5.511,-4.75 h -8.744 c 0,0 -4.108,-0.15 -5.514,4.75 l -3.52,12.263 c -0.334,1.147 0.293,2.019 1.297,2.309 1.001,0.286 2.026,-0.22 2.285,-1.133 l 3.428,-11.953 1.67,-0.003 -5.005,20.696 h 4.423 V 51.86 c 0,1.21 0.977,2.197 2.19,2.197 1.21,0 2.201,-0.987 2.201,-2.197 V 37.159 h 1.855 V 51.86 c 0,1.21 0.977,2.197 2.187,2.197 1.217,0 2.204,-0.987 2.204,-2.197 V 37.159 h 4.346 l -4.953,-20.696 1.664,0.003 3.39,11.827 c 0.056,0.202 0.146,0.387 0.265,0.547 0.332,0.502 0.91,0.781 1.556,0.76 0.645,0.021 1.221,-0.254 1.552,-0.75 0.14,-0.178 0.234,-0.384 0.29,-0.61 l 3.373,-11.775 1.538,-0.003 v 34.972 c 0,1.431 1.168,2.585 2.595,2.585 1.426,0 2.584,-1.154 2.584,-2.585 V 31.537 h 1.911 v 19.897 c 0,1.431 1.158,2.585 2.581,2.585 1.43,0 2.602,-1.154 2.602,-2.585 V 16.462 l 1.671,0.003 3.282,11.953 c 0.178,0.589 0.669,0.977 1.259,1.126 0.024,0.007 0.038,0.018 0.06,0.024 0.522,0.119 2.934,0.802 4.705,1.308 v 21.69 c 0,1.001 0.819,1.813 1.82,1.813 1.001,0 1.814,-0.812 1.814,-1.813 V 41.73 h 1.423 v 10.836 c 0,1.001 0.812,1.813 1.813,1.813 1.001,0 1.824,-0.812 1.824,-1.813 V 32.305 h 1.395 v 6.864 c 0,0.753 0.61,1.36 1.354,1.36 0.746,0 1.336,-0.607 1.336,-1.36 v -7.81 C 81.831,29.175 79.906,27.4 77.718,27.4 Z"
               inkscape:connector-curvature="0"
               style="fill:#008000" />
          </g>
        </g>
        <circle
           r="16.838814"
           cy="932.57343"
           cx="186.62109"
           id="circle2197"
           style="opacity:1;fill:none;fill-opacity:1;stroke:#008000;stroke-width:3.70416665;stroke-linecap:square;stroke-linejoin:miter;stroke-miterlimit:4;stroke-dasharray:none;stroke-opacity:1" />
      </g>
      <g
         transform="translate(-21.390565,-116.28317)"
         id="g2237">
        <circle
           r="16.838814"
           cy="1106.3408"
           cx="15.123354"
           id="circle2224"
           style="opacity:1;fill:none;fill-opacity:1;stroke:#800080;stroke-width:3.70416665;stroke-linecap:square;stroke-linejoin:miter;stroke-miterlimit:4;stroke-dasharray:none;stroke-opacity:1" />
        <circle
           r="5.0834155"
           cy="1106.3408"
           cx="15.123354"
           id="circle2228"
           style="opacity:1;fill:none;fill-opacity:1;stroke:#800080;stroke-width:3.70416641;stroke-linecap:square;stroke-linejoin:miter;stroke-miterlimit:4;stroke-dasharray:none;stroke-opacity:1" />
      </g>
    </g>
  </g>
</svg>
